<svg xmlns="http://www.w3.org/2000/svg" viewBox="0 0 48 48">
  <!-- Shield -->
  <path d="M24 3 L42 9.5 V21 C42 32 34 40 24 43 C14 40 6 32 6 21 V9.5 Z" fill="#1e1b4b" stroke="#6366f1" stroke-width="2"/>
  <!-- Coin circle -->
  <circle cx="24" cy="23" r="10" fill="#312e81" stroke="#818cf8" stroke-width="1.2"/>
  <!-- Dollar sign (path for precise centering) -->
  <path d="M24 15.5 V17 M24 29 V30.5 M21 19.5 C21 17.8 22.3 17 24 17 C25.7 17 27 17.8 27 19.5 C27 21.2 24 21.5 24 23 C24 24.5 21 24.8 21 26.5 C21 28.2 22.3 29 24 29 C25.7 29 27 28.2 27 26.5" fill="none" stroke="#a5b4fc" stroke-width="1.8" stroke-linecap="round" stroke-linejoin="round"/>
</svg>
